<?xml version="1.0" encoding="UTF-8" standalone="no"?>
<svg
   xmlns:dc="http://purl.org/dc/elements/1.1/"
   xmlns:cc="http://creativecommons.org/ns#"
   xmlns:rdf="http://www.w3.org/1999/02/22-rdf-syntax-ns#"
   xmlns:svg="http://www.w3.org/2000/svg"
   xmlns="http://www.w3.org/2000/svg"
   xmlns:sodipodi="http://sodipodi.sourceforge.net/DTD/sodipodi-0.dtd"
   xmlns:inkscape="http://www.inkscape.org/namespaces/inkscape"
   viewBox="0 0 146.76001 228.47725"
   version="1.1"
   id="svg104"
   sodipodi:docname="rock-paper-scissors-line-icons.svg"
   inkscape:version="1.0.1 (c497b03c, 2020-09-10)"
   width="146.76001"
   height="228.47725">
  <metadata
     id="metadata108">
    <rdf:RDF>
      <cc:Work
         rdf:about="">
        <dc:format>image/svg+xml</dc:format>
        <dc:type
           rdf:resource="http://purl.org/dc/dcmitype/StillImage" />
        <dc:title>rock-paper-scissors-line-icons</dc:title>
      </cc:Work>
    </rdf:RDF>
  </metadata>
  <sodipodi:namedview
     pagecolor="#ffffff"
     bordercolor="#666666"
     borderopacity="1"
     objecttolerance="10"
     gridtolerance="10"
     guidetolerance="10"
     inkscape:pageopacity="0"
     inkscape:pageshadow="2"
     inkscape:window-width="1440"
     inkscape:window-height="855"
     id="namedview106"
     showgrid="false"
     inkscape:zoom="0.78524433"
     inkscape:cx="230.57335"
     inkscape:cy="28.859689"
     inkscape:window-x="0"
     inkscape:window-y="23"
     inkscape:window-maximized="0"
     inkscape:current-layer="svg104"
     inkscape:document-rotation="0"
     fit-margin-top="0"
     fit-margin-left="0"
     fit-margin-right="0"
     fit-margin-bottom="0" />
  <defs
     id="defs12">
    <style
       id="style10">.cls-1{fill:#fcf2f0;}.cls-2{fill:none;stroke:#262626;stroke-linecap:round;stroke-linejoin:round;stroke-width:7px;}.cls-3{fill:#262626;}</style>
    <filter
       style="color-interpolation-filters:sRGB"
       inkscape:label="Drop Shadow"
       id="filter2283">
      <feFlood
         flood-opacity="0.698039"
         flood-color="rgb(0,0,0)"
         result="flood"
         id="feFlood2273" />
      <feComposite
         in="flood"
         in2="SourceGraphic"
         operator="out"
         result="composite1"
         id="feComposite2275" />
      <feGaussianBlur
         in="composite1"
         stdDeviation="1"
         result="blur"
         id="feGaussianBlur2277" />
      <feOffset
         dx="4.57967e-15"
         dy="3"
         result="offset"
         id="feOffset2279" />
      <feComposite
         in="offset"
         in2="SourceGraphic"
         operator="atop"
         result="composite2"
         id="feComposite2281" />
    </filter>
    <filter
       style="color-interpolation-filters:sRGB"
       inkscape:label="Drop Shadow"
       id="filter2295">
      <feFlood
         flood-opacity="0.698039"
         flood-color="rgb(0,0,0)"
         result="flood"
         id="feFlood2285" />
      <feComposite
         in="flood"
         in2="SourceGraphic"
         operator="out"
         result="composite1"
         id="feComposite2287" />
      <feGaussianBlur
         in="composite1"
         stdDeviation="1"
         result="blur"
         id="feGaussianBlur2289" />
      <feOffset
         dx="4.57967e-15"
         dy="3"
         result="offset"
         id="feOffset2291" />
      <feComposite
         in="offset"
         in2="SourceGraphic"
         operator="atop"
         result="composite2"
         id="feComposite2293" />
    </filter>
    <filter
       style="color-interpolation-filters:sRGB"
       inkscape:label="Drop Shadow"
       id="filter2503">
      <feFlood
         flood-opacity="0.698039"
         flood-color="rgb(0,0,0)"
         result="flood"
         id="feFlood2493" />
      <feComposite
         in="flood"
         in2="SourceGraphic"
         operator="out"
         result="composite1"
         id="feComposite2495" />
      <feGaussianBlur
         in="composite1"
         stdDeviation="1"
         result="blur"
         id="feGaussianBlur2497" />
      <feOffset
         dx="4.57967e-15"
         dy="3"
         result="offset"
         id="feOffset2499" />
      <feComposite
         in="offset"
         in2="SourceGraphic"
         operator="atop"
         result="composite2"
         id="feComposite2501" />
    </filter>
    <filter
       style="color-interpolation-filters:sRGB"
       inkscape:label="Drop Shadow"
       id="filter2515">
      <feFlood
         flood-opacity="0.698039"
         flood-color="rgb(0,0,0)"
         result="flood"
         id="feFlood2505" />
      <feComposite
         in="flood"
         in2="SourceGraphic"
         operator="out"
         result="composite1"
         id="feComposite2507" />
      <feGaussianBlur
         in="composite1"
         stdDeviation="1"
         result="blur"
         id="feGaussianBlur2509" />
      <feOffset
         dx="4.57967e-15"
         dy="3"
         result="offset"
         id="feOffset2511" />
      <feComposite
         in="offset"
         in2="SourceGraphic"
         operator="atop"
         result="composite2"
         id="feComposite2513" />
    </filter>
    <filter
       style="color-interpolation-filters:sRGB"
       inkscape:label="Drop Shadow"
       id="filter2527">
      <feFlood
         flood-opacity="0.698039"
         flood-color="rgb(0,0,0)"
         result="flood"
         id="feFlood2517" />
      <feComposite
         in="flood"
         in2="SourceGraphic"
         operator="out"
         result="composite1"
         id="feComposite2519" />
      <feGaussianBlur
         in="composite1"
         stdDeviation="1"
         result="blur"
         id="feGaussianBlur2521" />
      <feOffset
         dx="4.57967e-15"
         dy="3"
         result="offset"
         id="feOffset2523" />
      <feComposite
         in="offset"
         in2="SourceGraphic"
         operator="atop"
         result="composite2"
         id="feComposite2525" />
    </filter>
    <filter
       style="color-interpolation-filters:sRGB"
       inkscape:label="Drop Shadow"
       id="filter2539">
      <feFlood
         flood-opacity="0.698039"
         flood-color="rgb(0,0,0)"
         result="flood"
         id="feFlood2529" />
      <feComposite
         in="flood"
         in2="SourceGraphic"
         operator="out"
         result="composite1"
         id="feComposite2531" />
      <feGaussianBlur
         in="composite1"
         stdDeviation="1"
         result="blur"
         id="feGaussianBlur2533" />
      <feOffset
         dx="4.57967e-15"
         dy="3"
         result="offset"
         id="feOffset2535" />
      <feComposite
         in="offset"
         in2="SourceGraphic"
         operator="atop"
         result="composite2"
         id="feComposite2537" />
    </filter>
    <filter
       style="color-interpolation-filters:sRGB"
       inkscape:label="Drop Shadow"
       id="filter2551">
      <feFlood
         flood-opacity="0.698039"
         flood-color="rgb(0,0,0)"
         result="flood"
         id="feFlood2541" />
      <feComposite
         in="flood"
         in2="SourceGraphic"
         operator="out"
         result="composite1"
         id="feComposite2543" />
      <feGaussianBlur
         in="composite1"
         stdDeviation="1"
         result="blur"
         id="feGaussianBlur2545" />
      <feOffset
         dx="4.57967e-15"
         dy="3"
         result="offset"
         id="feOffset2547" />
      <feComposite
         in="offset"
         in2="SourceGraphic"
         operator="atop"
         result="composite2"
         id="feComposite2549" />
    </filter>
    <filter
       style="color-interpolation-filters:sRGB"
       inkscape:label="Drop Shadow"
       id="filter2563">
      <feFlood
         flood-opacity="0.698039"
         flood-color="rgb(0,0,0)"
         result="flood"
         id="feFlood2553" />
      <feComposite
         in="flood"
         in2="SourceGraphic"
         operator="out"
         result="composite1"
         id="feComposite2555" />
      <feGaussianBlur
         in="composite1"
         stdDeviation="1"
         result="blur"
         id="feGaussianBlur2557" />
      <feOffset
         dx="4.57967e-15"
         dy="3"
         result="offset"
         id="feOffset2559" />
      <feComposite
         in="offset"
         in2="SourceGraphic"
         operator="atop"
         result="composite2"
         id="feComposite2561" />
    </filter>
  </defs>
  <title
     id="title14">rock-paper-scissors-line-icons</title>
  <g
     id="g2410"
     style="fill:none;stroke:#ffffff;stroke-opacity:1;filter:url(#filter2515)"
     transform="translate(-426.63,-256.19999)">
    <path
       class="cls-2"
       d="m 479.62,270 h -12.56 a 12.53,12.53 0 0 0 -12.54,12.54 v 106.64"
       id="path42"
       style="fill:none;stroke:#ffffff;stroke-opacity:1" />
    <polyline
       class="cls-2"
       points="536.06 295.1 536.06 289.25 536.06 288.82"
       id="polyline44"
       style="fill:none;stroke:#ffffff;stroke-opacity:1" />
    <path
       class="cls-2"
       d="m 479.62,270 h 69 a 12.54,12.54 0 0 1 12.54,12.54 v 6.71 h -25.1"
       id="path46"
       style="fill:none;stroke:#ffffff;stroke-opacity:1" />
    <path
       class="cls-2"
       d="m 548.62,270 a 12.55,12.55 0 0 0 -12.56,12.54 v 6.28"
       id="path48"
       style="fill:none;stroke:#ffffff;stroke-opacity:1" />
    <path
       class="cls-2"
       d="M 523.52,408 A 12.53,12.53 0 0 1 511,395.46 v -6.28 h -69 a 3.15,3.15 0 0 0 -3.14,3.14 v 3.14 A 12.53,12.53 0 0 0 451.38,408 h 72.14 a 12.53,12.53 0 0 0 12.54,-12.54 V 295.1"
       id="path50"
       style="fill:none;stroke:#ffffff;stroke-opacity:1" />
  </g>
  <g
     id="g2481"
     transform="translate(-426.63,-312.54246)"
     style="filter:url(#filter2551)">
    <path
       class="cls-3"
       d="m 444.18,535.75 v -31.5 a 1.6,1.6 0 0 1 1.75,-1.75 h 6.35 c 5.5,0 8.2,3.05 8.2,8.65 v 3.45 c 0,5.6 -2.7,8.65 -8.2,8.65 h -2.6 v 12.5 a 1.6,1.6 0 0 1 -1.75,1.75 h -2 a 1.6,1.6 0 0 1 -1.75,-1.75 z m 8.1,-17.5 c 1.75,0 2.7,-0.8 2.7,-3.3 v -4.15 c 0,-2.5 -1,-3.3 -2.7,-3.3 h -2.6 v 10.75 z"
       id="path85"
       style="fill:#ffffff;fill-opacity:1;stroke:none" />
    <path
       class="cls-3"
       d="m 465.43,536 a 2.2,2.2 0 0 1 0.05,-0.45 l 5.25,-31.45 a 1.7,1.7 0 0 1 1.85,-1.6 h 4.25 a 1.7,1.7 0 0 1 1.85,1.6 l 5.25,31.45 a 2.2,2.2 0 0 1 0.05,0.45 c 0,1 -0.6,1.5 -1.65,1.5 h -1.95 a 1.71,1.71 0 0 1 -1.9,-1.6 l -0.75,-5.35 v 0.1 h -6.45 l -0.75,5.25 a 1.71,1.71 0 0 1 -1.9,1.6 h -1.55 c -1.08,0 -1.65,-0.5 -1.65,-1.5 z m 11.65,-10.1 -2.55,-17.3 h -0.1 l -2.5,17.3 z"
       id="path87"
       style="fill:#ffffff;fill-opacity:1;stroke:none" />
    <path
       class="cls-3"
       d="m 491.77,535.75 v -31.5 a 1.6,1.6 0 0 1 1.75,-1.75 h 6.36 c 5.5,0 8.2,3.05 8.2,8.65 v 3.45 c 0,5.6 -2.7,8.65 -8.2,8.65 h -2.61 v 12.5 a 1.6,1.6 0 0 1 -1.75,1.75 h -2 a 1.6,1.6 0 0 1 -1.75,-1.75 z m 8.11,-17.5 c 1.75,0 2.7,-0.8 2.7,-3.3 v -4.15 c 0,-2.5 -0.95,-3.3 -2.7,-3.3 h -2.61 v 10.75 z"
       id="path89"
       style="fill:#ffffff;fill-opacity:1;stroke:none" />
    <path
       class="cls-3"
       d="m 516.07,535.75 v -31.5 a 1.6,1.6 0 0 1 1.75,-1.75 h 11.5 a 1.61,1.61 0 0 1 1.76,1.75 v 1.5 a 1.61,1.61 0 0 1 -1.76,1.75 h -7.75 v 9.25 h 5.8 a 1.6,1.6 0 0 1 1.75,1.75 v 1.5 a 1.6,1.6 0 0 1 -1.75,1.75 h -5.8 v 10.75 h 7.75 a 1.61,1.61 0 0 1 1.76,1.75 v 1.5 a 1.61,1.61 0 0 1 -1.76,1.75 h -11.5 a 1.6,1.6 0 0 1 -1.75,-1.75 z"
       id="path91"
       style="fill:#ffffff;fill-opacity:1;stroke:none" />
    <path
       class="cls-3"
       d="m 539.22,535.75 v -31.5 A 1.6,1.6 0 0 1 541,502.5 h 6.4 c 5.7,0 8.15,2.65 8.15,8.05 v 2.15 c 0,3.6 -1.15,5.9 -3.6,6.9 v 0.1 c 2.75,0.85 3.65,3.45 3.65,7.4 v 6.15 a 11.37,11.37 0 0 0 0.15,2.35 3.44,3.44 0 0 1 0.1,0.65 c 0,0.8 -0.55,1.25 -1.5,1.25 h -2.2 a 1.67,1.67 0 0 1 -1.9,-1.5 17.57,17.57 0 0 1 -0.15,-2.8 v -6.4 c 0,-3.25 -1,-4.3 -3.45,-4.3 h -1.9 v 13.25 A 1.6,1.6 0 0 1 543,537.5 h -2 a 1.6,1.6 0 0 1 -1.78,-1.75 z m 7.5,-18.25 c 2,0 3.3,-0.9 3.3,-3.7 v -2.7 c 0,-2.5 -0.85,-3.6 -2.8,-3.6 h -2.5 v 10 z"
       id="path93"
       style="fill:#ffffff;fill-opacity:1;stroke:none" />
  </g>
</svg>
