<?xml version="1.0" encoding="UTF-8" standalone="no"?>
<svg
   xmlns:dc="http://purl.org/dc/elements/1.1/"
   xmlns:cc="http://creativecommons.org/ns#"
   xmlns:rdf="http://www.w3.org/1999/02/22-rdf-syntax-ns#"
   xmlns:svg="http://www.w3.org/2000/svg"
   xmlns="http://www.w3.org/2000/svg"
   xmlns:sodipodi="http://sodipodi.sourceforge.net/DTD/sodipodi-0.dtd"
   xmlns:inkscape="http://www.inkscape.org/namespaces/inkscape"
   viewBox="0 0 114.42001 232.65753"
   version="1.1"
   id="svg104"
   sodipodi:docname="rock-paper-scissors-line-icons.svg"
   inkscape:version="1.0.1 (c497b03c, 2020-09-10)"
   width="114.42001"
   height="232.65753">
  <metadata
     id="metadata108">
    <rdf:RDF>
      <cc:Work
         rdf:about="">
        <dc:format>image/svg+xml</dc:format>
        <dc:type
           rdf:resource="http://purl.org/dc/dcmitype/StillImage" />
        <dc:title>rock-paper-scissors-line-icons</dc:title>
      </cc:Work>
    </rdf:RDF>
  </metadata>
  <sodipodi:namedview
     pagecolor="#ffffff"
     bordercolor="#666666"
     borderopacity="1"
     objecttolerance="10"
     gridtolerance="10"
     guidetolerance="10"
     inkscape:pageopacity="0"
     inkscape:pageshadow="2"
     inkscape:window-width="1440"
     inkscape:window-height="900"
     id="namedview106"
     showgrid="false"
     inkscape:zoom="0.78524433"
     inkscape:cx="347.10877"
     inkscape:cy="139.88194"
     inkscape:window-x="0"
     inkscape:window-y="0"
     inkscape:window-maximized="0"
     inkscape:current-layer="svg104"
     fit-margin-top="0"
     fit-margin-left="0"
     fit-margin-right="0"
     fit-margin-bottom="0" />
  <defs
     id="defs12">
    <style
       id="style10">.cls-1{fill:#fcf2f0;}.cls-2{fill:none;stroke:#262626;stroke-linecap:round;stroke-linejoin:round;stroke-width:7px;}.cls-3{fill:#262626;}</style>
    <filter
       style="color-interpolation-filters:sRGB"
       inkscape:label="Drop Shadow"
       id="filter2283">
      <feFlood
         flood-opacity="0.698039"
         flood-color="rgb(0,0,0)"
         result="flood"
         id="feFlood2273" />
      <feComposite
         in="flood"
         in2="SourceGraphic"
         operator="out"
         result="composite1"
         id="feComposite2275" />
      <feGaussianBlur
         in="composite1"
         stdDeviation="1"
         result="blur"
         id="feGaussianBlur2277" />
      <feOffset
         dx="4.57967e-15"
         dy="3"
         result="offset"
         id="feOffset2279" />
      <feComposite
         in="offset"
         in2="SourceGraphic"
         operator="atop"
         result="composite2"
         id="feComposite2281" />
    </filter>
    <filter
       style="color-interpolation-filters:sRGB"
       inkscape:label="Drop Shadow"
       id="filter2295">
      <feFlood
         flood-opacity="0.698039"
         flood-color="rgb(0,0,0)"
         result="flood"
         id="feFlood2285" />
      <feComposite
         in="flood"
         in2="SourceGraphic"
         operator="out"
         result="composite1"
         id="feComposite2287" />
      <feGaussianBlur
         in="composite1"
         stdDeviation="1"
         result="blur"
         id="feGaussianBlur2289" />
      <feOffset
         dx="4.57967e-15"
         dy="3"
         result="offset"
         id="feOffset2291" />
      <feComposite
         in="offset"
         in2="SourceGraphic"
         operator="atop"
         result="composite2"
         id="feComposite2293" />
    </filter>
    <filter
       style="color-interpolation-filters:sRGB"
       inkscape:label="Drop Shadow"
       id="filter2503">
      <feFlood
         flood-opacity="0.698039"
         flood-color="rgb(0,0,0)"
         result="flood"
         id="feFlood2493" />
      <feComposite
         in="flood"
         in2="SourceGraphic"
         operator="out"
         result="composite1"
         id="feComposite2495" />
      <feGaussianBlur
         in="composite1"
         stdDeviation="1"
         result="blur"
         id="feGaussianBlur2497" />
      <feOffset
         dx="4.57967e-15"
         dy="3"
         result="offset"
         id="feOffset2499" />
      <feComposite
         in="offset"
         in2="SourceGraphic"
         operator="atop"
         result="composite2"
         id="feComposite2501" />
    </filter>
    <filter
       style="color-interpolation-filters:sRGB"
       inkscape:label="Drop Shadow"
       id="filter2515">
      <feFlood
         flood-opacity="0.698039"
         flood-color="rgb(0,0,0)"
         result="flood"
         id="feFlood2505" />
      <feComposite
         in="flood"
         in2="SourceGraphic"
         operator="out"
         result="composite1"
         id="feComposite2507" />
      <feGaussianBlur
         in="composite1"
         stdDeviation="1"
         result="blur"
         id="feGaussianBlur2509" />
      <feOffset
         dx="4.57967e-15"
         dy="3"
         result="offset"
         id="feOffset2511" />
      <feComposite
         in="offset"
         in2="SourceGraphic"
         operator="atop"
         result="composite2"
         id="feComposite2513" />
    </filter>
    <filter
       style="color-interpolation-filters:sRGB"
       inkscape:label="Drop Shadow"
       id="filter2527">
      <feFlood
         flood-opacity="0.698039"
         flood-color="rgb(0,0,0)"
         result="flood"
         id="feFlood2517" />
      <feComposite
         in="flood"
         in2="SourceGraphic"
         operator="out"
         result="composite1"
         id="feComposite2519" />
      <feGaussianBlur
         in="composite1"
         stdDeviation="1"
         result="blur"
         id="feGaussianBlur2521" />
      <feOffset
         dx="4.57967e-15"
         dy="3"
         result="offset"
         id="feOffset2523" />
      <feComposite
         in="offset"
         in2="SourceGraphic"
         operator="atop"
         result="composite2"
         id="feComposite2525" />
    </filter>
    <filter
       style="color-interpolation-filters:sRGB"
       inkscape:label="Drop Shadow"
       id="filter2539">
      <feFlood
         flood-opacity="0.698039"
         flood-color="rgb(0,0,0)"
         result="flood"
         id="feFlood2529" />
      <feComposite
         in="flood"
         in2="SourceGraphic"
         operator="out"
         result="composite1"
         id="feComposite2531" />
      <feGaussianBlur
         in="composite1"
         stdDeviation="1"
         result="blur"
         id="feGaussianBlur2533" />
      <feOffset
         dx="4.57967e-15"
         dy="3"
         result="offset"
         id="feOffset2535" />
      <feComposite
         in="offset"
         in2="SourceGraphic"
         operator="atop"
         result="composite2"
         id="feComposite2537" />
    </filter>
    <filter
       style="color-interpolation-filters:sRGB"
       inkscape:label="Drop Shadow"
       id="filter2551">
      <feFlood
         flood-opacity="0.698039"
         flood-color="rgb(0,0,0)"
         result="flood"
         id="feFlood2541" />
      <feComposite
         in="flood"
         in2="SourceGraphic"
         operator="out"
         result="composite1"
         id="feComposite2543" />
      <feGaussianBlur
         in="composite1"
         stdDeviation="1"
         result="blur"
         id="feGaussianBlur2545" />
      <feOffset
         dx="4.57967e-15"
         dy="3"
         result="offset"
         id="feOffset2547" />
      <feComposite
         in="offset"
         in2="SourceGraphic"
         operator="atop"
         result="composite2"
         id="feComposite2549" />
    </filter>
    <filter
       style="color-interpolation-filters:sRGB"
       inkscape:label="Drop Shadow"
       id="filter2563">
      <feFlood
         flood-opacity="0.698039"
         flood-color="rgb(0,0,0)"
         result="flood"
         id="feFlood2553" />
      <feComposite
         in="flood"
         in2="SourceGraphic"
         operator="out"
         result="composite1"
         id="feComposite2555" />
      <feGaussianBlur
         in="composite1"
         stdDeviation="1"
         result="blur"
         id="feGaussianBlur2557" />
      <feOffset
         dx="4.57967e-15"
         dy="3"
         result="offset"
         id="feOffset2559" />
      <feComposite
         in="offset"
         in2="SourceGraphic"
         operator="atop"
         result="composite2"
         id="feComposite2561" />
    </filter>
  </defs>
  <title
     id="title14">rock-paper-scissors-line-icons</title>
  <g
     id="g2376"
     style="fill:none;stroke:#ffffff;stroke-opacity:1;filter:url(#filter2527)"
     transform="translate(-160.335,-252.6)">
    <path
       class="cls-2"
       d="m 265.22,323.7 v 48 a 39.3,39.3 0 0 1 -39.3,39.3 h -16.75 a 39.3,39.3 0 0 1 -39.3,-39.3 v -47.39"
       id="path54"
       style="fill:none;stroke:#ffffff;stroke-opacity:1" />
    <path
       class="cls-2"
       d="M 169.87,324.34 V 278.92 A 11.92,11.92 0 0 1 181.79,267 v 0 a 11.92,11.92 0 0 1 11.91,11.92 v 45.42"
       id="path56"
       style="fill:none;stroke:#ffffff;stroke-opacity:1" />
    <path
       class="cls-2"
       d="M 241.38,324.34 V 278.92 A 11.92,11.92 0 0 1 253.3,267 v 0 a 11.92,11.92 0 0 1 11.92,11.92 v 45.42"
       id="path58"
       style="fill:none;stroke:#ffffff;stroke-opacity:1" />
    <path
       class="cls-2"
       d="m 193.7,336.58 v -22.22 a 11.92,11.92 0 0 1 11.92,-11.92 v 0 a 11.91,11.91 0 0 1 11.92,11.92 v 6.12"
       id="path60"
       style="fill:none;stroke:#ffffff;stroke-opacity:1" />
    <path
       class="cls-2"
       d="m 217.54,338.28 v -23.92 a 11.92,11.92 0 0 1 11.92,-11.92 v 0 a 11.91,11.91 0 0 1 11.92,11.92 v 29 a 11.92,11.92 0 0 1 -11.92,11.92 v 0 a 11.81,11.81 0 0 1 -6.66,-2"
       id="path62"
       style="fill:none;stroke:#ffffff;stroke-opacity:1" />
    <path
       class="cls-2"
       d="m 169.87,350.58 a 14,14 0 0 1 14,-14 h 27.55 a 11.92,11.92 0 0 1 11.92,11.92 v 0 a 11.91,11.91 0 0 1 -11.92,11.92 h -18.55"
       id="path64"
       style="fill:none;stroke:#ffffff;stroke-opacity:1" />
    <path
       class="cls-2"
       d="m 206.59,360.42 a 12.89,12.89 0 0 1 12.89,12.89 v 8.37"
       id="path66"
       style="fill:none;stroke:#ffffff;stroke-opacity:1" />
  </g>
  <g
     id="g2474"
     transform="translate(-160.335,-308.94247)"
     style="filter:url(#filter2563)">
    <path
       class="cls-3"
       d="m 171.54,535.75 v -31.5 a 1.6,1.6 0 0 1 1.75,-1.75 h 6.4 c 5.7,0 8.15,2.65 8.15,8.05 v 2.15 c 0,3.6 -1.15,5.9 -3.6,6.9 v 0.1 c 2.75,0.85 3.65,3.45 3.65,7.4 v 6.15 a 11.37,11.37 0 0 0 0.15,2.35 3.44,3.44 0 0 1 0.1,0.65 c 0,0.8 -0.55,1.25 -1.5,1.25 h -2.2 a 1.67,1.67 0 0 1 -1.9,-1.5 17.57,17.57 0 0 1 -0.15,-2.8 v -6.4 c 0,-3.25 -0.95,-4.3 -3.45,-4.3 H 177 v 13.25 a 1.6,1.6 0 0 1 -1.75,1.75 h -2 a 1.6,1.6 0 0 1 -1.71,-1.75 z M 179,517.5 c 2.05,0 3.3,-0.9 3.3,-3.7 v -2.7 c 0,-2.5 -0.85,-3.6 -2.8,-3.6 H 177 v 10 z"
       id="path95"
       style="fill:#ffffff;fill-opacity:1;stroke:none" />
    <path
       class="cls-3"
       d="m 196.29,529.2 v -18.4 c 0,-5.6 3,-8.8 8.35,-8.8 5.35,0 8.35,3.2 8.35,8.8 v 18.4 c 0,5.6 -3,8.8 -8.35,8.8 -5.35,0 -8.35,-3.2 -8.35,-8.8 z m 11.2,0.35 v -19.1 c 0,-2.5 -1.1,-3.45 -2.85,-3.45 -1.75,0 -2.85,0.95 -2.85,3.45 v 19.1 c 0,2.5 1.1,3.45 2.85,3.45 1.75,0 2.85,-0.95 2.85,-3.45 z"
       id="path97"
       style="fill:#ffffff;fill-opacity:1;stroke:none" />
    <path
       class="cls-3"
       d="m 221.34,529.4 v -18.8 c 0,-5.4 2.8,-8.6 8.1,-8.6 5.3,0 8.1,3.2 8.1,8.6 v 1.95 a 1.6,1.6 0 0 1 -1.75,1.75 h -1.7 a 1.6,1.6 0 0 1 -1.75,-1.75 v -2.3 c 0,-2.3 -1.1,-3.25 -2.75,-3.25 -1.65,0 -2.75,0.95 -2.75,3.25 v 19.55 c 0,2.3 1.1,3.2 2.75,3.2 1.65,0 2.75,-0.9 2.75,-3.2 v -3.6 a 1.6,1.6 0 0 1 1.75,-1.75 h 1.7 a 1.6,1.6 0 0 1 1.75,1.75 v 3.2 c 0,5.4 -2.8,8.6 -8.1,8.6 -5.3,0 -8.1,-3.2 -8.1,-8.6 z"
       id="path99"
       style="fill:#ffffff;fill-opacity:1;stroke:none" />
    <path
       class="cls-3"
       d="m 245.84,535.75 v -31.5 a 1.6,1.6 0 0 1 1.75,-1.75 h 2 a 1.6,1.6 0 0 1 1.75,1.75 v 13 l 6.55,-13.45 a 2.1,2.1 0 0 1 2.05,-1.3 h 1.7 c 1,0 1.55,0.45 1.55,1.15 a 1.89,1.89 0 0 1 -0.25,0.9 l -5.65,10.8 6.15,20 a 2.77,2.77 0 0 1 0.15,0.85 c 0,0.85 -0.55,1.3 -1.55,1.3 h -2.15 a 2,2 0 0 1 -2,-1.45 l -4.35,-14.15 -2.2,4.45 v 9.4 a 1.6,1.6 0 0 1 -1.75,1.75 h -2 a 1.6,1.6 0 0 1 -1.75,-1.75 z"
       id="path101"
       style="fill:#ffffff;fill-opacity:1;stroke:none" />
  </g>
</svg>
