<?xml version="1.0" encoding="UTF-8" standalone="no"?>
<svg
   xmlns:dc="http://purl.org/dc/elements/1.1/"
   xmlns:cc="http://creativecommons.org/ns#"
   xmlns:rdf="http://www.w3.org/1999/02/22-rdf-syntax-ns#"
   xmlns:svg="http://www.w3.org/2000/svg"
   xmlns="http://www.w3.org/2000/svg"
   xmlns:sodipodi="http://sodipodi.sourceforge.net/DTD/sodipodi-0.dtd"
   xmlns:inkscape="http://www.inkscape.org/namespaces/inkscape"
   viewBox="0 0 211.31737 232.71253"
   version="1.1"
   id="svg104"
   sodipodi:docname="rock-paper-scissors-line-icons.svg"
   inkscape:version="1.0.1 (c497b03c, 2020-09-10)"
   width="211.31737"
   height="232.71252">
  <metadata
     id="metadata108">
    <rdf:RDF>
      <cc:Work
         rdf:about="">
        <dc:format>image/svg+xml</dc:format>
        <dc:type
           rdf:resource="http://purl.org/dc/dcmitype/StillImage" />
        <dc:title>rock-paper-scissors-line-icons</dc:title>
      </cc:Work>
    </rdf:RDF>
  </metadata>
  <sodipodi:namedview
     pagecolor="#ffffff"
     bordercolor="#666666"
     borderopacity="1"
     objecttolerance="10"
     gridtolerance="10"
     guidetolerance="10"
     inkscape:pageopacity="0"
     inkscape:pageshadow="2"
     inkscape:window-width="1440"
     inkscape:window-height="855"
     id="namedview106"
     showgrid="false"
     inkscape:zoom="0.78524433"
     inkscape:cx="95.024935"
     inkscape:cy="105.04855"
     inkscape:window-x="0"
     inkscape:window-y="23"
     inkscape:window-maximized="0"
     inkscape:current-layer="svg104"
     inkscape:document-rotation="0"
     fit-margin-top="0"
     fit-margin-left="0"
     fit-margin-right="0"
     fit-margin-bottom="0" />
  <defs
     id="defs12">
    <style
       id="style10">.cls-1{fill:#fcf2f0;}.cls-2{fill:none;stroke:#262626;stroke-linecap:round;stroke-linejoin:round;stroke-width:7px;}.cls-3{fill:#262626;}</style>
    <filter
       style="color-interpolation-filters:sRGB"
       inkscape:label="Drop Shadow"
       id="filter2283">
      <feFlood
         flood-opacity="0.698039"
         flood-color="rgb(0,0,0)"
         result="flood"
         id="feFlood2273" />
      <feComposite
         in="flood"
         in2="SourceGraphic"
         operator="out"
         result="composite1"
         id="feComposite2275" />
      <feGaussianBlur
         in="composite1"
         stdDeviation="1"
         result="blur"
         id="feGaussianBlur2277" />
      <feOffset
         dx="4.57967e-15"
         dy="3"
         result="offset"
         id="feOffset2279" />
      <feComposite
         in="offset"
         in2="SourceGraphic"
         operator="atop"
         result="composite2"
         id="feComposite2281" />
    </filter>
    <filter
       style="color-interpolation-filters:sRGB"
       inkscape:label="Drop Shadow"
       id="filter2295">
      <feFlood
         flood-opacity="0.698039"
         flood-color="rgb(0,0,0)"
         result="flood"
         id="feFlood2285" />
      <feComposite
         in="flood"
         in2="SourceGraphic"
         operator="out"
         result="composite1"
         id="feComposite2287" />
      <feGaussianBlur
         in="composite1"
         stdDeviation="1"
         result="blur"
         id="feGaussianBlur2289" />
      <feOffset
         dx="4.57967e-15"
         dy="3"
         result="offset"
         id="feOffset2291" />
      <feComposite
         in="offset"
         in2="SourceGraphic"
         operator="atop"
         result="composite2"
         id="feComposite2293" />
    </filter>
    <filter
       style="color-interpolation-filters:sRGB"
       inkscape:label="Drop Shadow"
       id="filter2503">
      <feFlood
         flood-opacity="0.698039"
         flood-color="rgb(0,0,0)"
         result="flood"
         id="feFlood2493" />
      <feComposite
         in="flood"
         in2="SourceGraphic"
         operator="out"
         result="composite1"
         id="feComposite2495" />
      <feGaussianBlur
         in="composite1"
         stdDeviation="1"
         result="blur"
         id="feGaussianBlur2497" />
      <feOffset
         dx="4.57967e-15"
         dy="3"
         result="offset"
         id="feOffset2499" />
      <feComposite
         in="offset"
         in2="SourceGraphic"
         operator="atop"
         result="composite2"
         id="feComposite2501" />
    </filter>
    <filter
       style="color-interpolation-filters:sRGB"
       inkscape:label="Drop Shadow"
       id="filter2515">
      <feFlood
         flood-opacity="0.698039"
         flood-color="rgb(0,0,0)"
         result="flood"
         id="feFlood2505" />
      <feComposite
         in="flood"
         in2="SourceGraphic"
         operator="out"
         result="composite1"
         id="feComposite2507" />
      <feGaussianBlur
         in="composite1"
         stdDeviation="1"
         result="blur"
         id="feGaussianBlur2509" />
      <feOffset
         dx="4.57967e-15"
         dy="3"
         result="offset"
         id="feOffset2511" />
      <feComposite
         in="offset"
         in2="SourceGraphic"
         operator="atop"
         result="composite2"
         id="feComposite2513" />
    </filter>
    <filter
       style="color-interpolation-filters:sRGB"
       inkscape:label="Drop Shadow"
       id="filter2527">
      <feFlood
         flood-opacity="0.698039"
         flood-color="rgb(0,0,0)"
         result="flood"
         id="feFlood2517" />
      <feComposite
         in="flood"
         in2="SourceGraphic"
         operator="out"
         result="composite1"
         id="feComposite2519" />
      <feGaussianBlur
         in="composite1"
         stdDeviation="1"
         result="blur"
         id="feGaussianBlur2521" />
      <feOffset
         dx="4.57967e-15"
         dy="3"
         result="offset"
         id="feOffset2523" />
      <feComposite
         in="offset"
         in2="SourceGraphic"
         operator="atop"
         result="composite2"
         id="feComposite2525" />
    </filter>
    <filter
       style="color-interpolation-filters:sRGB"
       inkscape:label="Drop Shadow"
       id="filter2539">
      <feFlood
         flood-opacity="0.698039"
         flood-color="rgb(0,0,0)"
         result="flood"
         id="feFlood2529" />
      <feComposite
         in="flood"
         in2="SourceGraphic"
         operator="out"
         result="composite1"
         id="feComposite2531" />
      <feGaussianBlur
         in="composite1"
         stdDeviation="1"
         result="blur"
         id="feGaussianBlur2533" />
      <feOffset
         dx="4.57967e-15"
         dy="3"
         result="offset"
         id="feOffset2535" />
      <feComposite
         in="offset"
         in2="SourceGraphic"
         operator="atop"
         result="composite2"
         id="feComposite2537" />
    </filter>
    <filter
       style="color-interpolation-filters:sRGB"
       inkscape:label="Drop Shadow"
       id="filter2551">
      <feFlood
         flood-opacity="0.698039"
         flood-color="rgb(0,0,0)"
         result="flood"
         id="feFlood2541" />
      <feComposite
         in="flood"
         in2="SourceGraphic"
         operator="out"
         result="composite1"
         id="feComposite2543" />
      <feGaussianBlur
         in="composite1"
         stdDeviation="1"
         result="blur"
         id="feGaussianBlur2545" />
      <feOffset
         dx="4.57967e-15"
         dy="3"
         result="offset"
         id="feOffset2547" />
      <feComposite
         in="offset"
         in2="SourceGraphic"
         operator="atop"
         result="composite2"
         id="feComposite2549" />
    </filter>
    <filter
       style="color-interpolation-filters:sRGB"
       inkscape:label="Drop Shadow"
       id="filter2563">
      <feFlood
         flood-opacity="0.698039"
         flood-color="rgb(0,0,0)"
         result="flood"
         id="feFlood2553" />
      <feComposite
         in="flood"
         in2="SourceGraphic"
         operator="out"
         result="composite1"
         id="feComposite2555" />
      <feGaussianBlur
         in="composite1"
         stdDeviation="1"
         result="blur"
         id="feGaussianBlur2557" />
      <feOffset
         dx="4.57967e-15"
         dy="3"
         result="offset"
         id="feOffset2559" />
      <feComposite
         in="offset"
         in2="SourceGraphic"
         operator="atop"
         result="composite2"
         id="feComposite2561" />
    </filter>
  </defs>
  <title
     id="title14">rock-paper-scissors-line-icons</title>
  <g
     id="g2423"
     style="fill:none;stroke:#ffffff;stroke-opacity:1;filter:url(#filter2503)"
     transform="translate(-676.79242,-252.6)">
    <g
       id="scissor"
       style="fill:none;stroke:#ffffff;stroke-opacity:1">
      <line
         class="cls-2"
         x1="784.28003"
         y1="365.17999"
         x2="795.54999"
         y2="378.26999"
         id="line21"
         style="fill:none;stroke:#ffffff;stroke-opacity:1" />
      <path
         class="cls-2"
         d="M 782.46,327.54 735.08,267 c -8.26,15.17 -6.09,34.59 5.25,47.1 l 27.06,31.45"
         id="path23"
         style="fill:none;stroke:#ffffff;stroke-opacity:1" />
      <line
         class="cls-2"
         x1="811.90997"
         y1="365.17999"
         x2="798.82001"
         y2="348.45001"
         id="line25"
         style="fill:none;stroke:#ffffff;stroke-opacity:1" />
      <path
         class="cls-2"
         d="M 754.64,365.18 831.47,267 c 8.26,15.17 6.09,34.59 -5.25,47.1 l -56.85,67.45"
         id="path27"
         style="fill:none;stroke:#ffffff;stroke-opacity:1" />
      <path
         class="cls-2"
         d="m 784.09,343.91 a 1.64,1.64 0 1 1 -1.63,1.64 1.63,1.63 0 0 1 1.63,-1.64"
         id="path29"
         style="fill:none;stroke:#ffffff;stroke-opacity:1" />
      <circle
         class="cls-2"
         cx="746.46002"
         cy="388.09"
         r="22.91"
         id="circle31"
         style="fill:none;stroke:#ffffff;stroke-opacity:1" />
      <circle
         class="cls-2"
         cx="746.46002"
         cy="388.09"
         r="9.8199997"
         id="circle33"
         style="fill:none;stroke:#ffffff;stroke-opacity:1" />
      <circle
         class="cls-2"
         cx="818.46002"
         cy="388.09"
         r="22.91"
         id="circle35"
         style="fill:none;stroke:#ffffff;stroke-opacity:1" />
      <circle
         class="cls-2"
         cx="818.46002"
         cy="388.09"
         r="9.8199997"
         id="circle37"
         style="fill:none;stroke:#ffffff;stroke-opacity:1" />
    </g>
  </g>
  <g
     id="g2491"
     transform="translate(-676.79242,-308.94247)"
     style="filter:url(#filter2539)">
    <path
       class="cls-3"
       d="M 694.41,529.2 V 529 a 1.6,1.6 0 0 1 1.75,-1.75 h 1.7 a 1.6,1.6 0 0 1 1.75,1.75 v 0.65 c 0,2.5 1.1,3.4 2.85,3.4 1.75,0 2.85,-0.9 2.85,-3.5 0,-2.9 -1.1,-4.75 -4.7,-7.9 -4.6,-4.05 -6.1,-6.9 -6.1,-10.9 0,-5.5 2.85,-8.7 8.2,-8.7 5.35,0 8,3.3 8,8.5 a 1.56,1.56 0 0 1 -1.75,1.75 h -1.7 a 1.56,1.56 0 0 1 -1.75,-1.75 v -0.05 c 0,-2.5 -1,-3.45 -2.75,-3.45 -1.75,0 -2.76,0.95 -2.76,3.3 0,2.35 1.15,4.4 4.75,7.55 4.6,4.05 6,6.85 6,11.2 0,5.7 -2.9,8.9 -8.3,8.9 -5.4,0 -8.04,-3.2 -8.04,-8.8 z"
       id="path69"
       style="fill:#ffffff;fill-opacity:1;stroke:none" />
    <path
       class="cls-3"
       d="m 718.61,529.4 v -18.8 c 0,-5.4 2.8,-8.6 8.1,-8.6 5.3,0 8.1,3.2 8.1,8.6 v 1.95 a 1.6,1.6 0 0 1 -1.75,1.75 h -1.7 a 1.6,1.6 0 0 1 -1.75,-1.75 v -2.3 c 0,-2.3 -1.1,-3.25 -2.75,-3.25 -1.65,0 -2.75,0.95 -2.75,3.25 v 19.55 c 0,2.3 1.1,3.2 2.75,3.2 1.65,0 2.75,-0.9 2.75,-3.2 v -3.6 a 1.6,1.6 0 0 1 1.75,-1.75 h 1.7 a 1.6,1.6 0 0 1 1.75,1.75 v 3.2 c 0,5.4 -2.8,8.6 -8.1,8.6 -5.3,0 -8.1,-3.2 -8.1,-8.6 z"
       id="path71"
       style="fill:#ffffff;fill-opacity:1;stroke:none" />
    <path
       class="cls-3"
       d="m 743.11,535.75 v -31.5 a 1.6,1.6 0 0 1 1.75,-1.75 h 2 a 1.6,1.6 0 0 1 1.75,1.75 v 31.5 a 1.6,1.6 0 0 1 -1.75,1.75 h -2 a 1.6,1.6 0 0 1 -1.75,-1.75 z"
       id="path73"
       style="fill:#ffffff;fill-opacity:1;stroke:none" />
    <path
       class="cls-3"
       d="M 756.76,529.2 V 529 a 1.6,1.6 0 0 1 1.75,-1.75 h 1.7 A 1.6,1.6 0 0 1 762,529 v 0.65 c 0,2.5 1.1,3.4 2.85,3.4 1.75,0 2.85,-0.9 2.85,-3.5 0,-2.9 -1.1,-4.75 -4.7,-7.9 -4.61,-4.05 -6.11,-6.9 -6.11,-10.9 0,-5.5 2.86,-8.7 8.21,-8.7 5.35,0 8,3.3 8,8.5 a 1.56,1.56 0 0 1 -1.75,1.75 h -1.7 a 1.56,1.56 0 0 1 -1.75,-1.75 v -0.05 c 0,-2.5 -1,-3.45 -2.75,-3.45 -1.75,0 -2.76,0.95 -2.76,3.35 0,2.4 1.16,4.4 4.76,7.55 4.6,4.05 6,6.85 6,11.2 0,5.7 -2.9,8.9 -8.3,8.9 -5.4,0 -8.09,-3.25 -8.09,-8.85 z"
       id="path75"
       style="fill:#ffffff;fill-opacity:1;stroke:none" />
    <path
       class="cls-3"
       d="M 780.35,529.2 V 529 a 1.6,1.6 0 0 1 1.75,-1.75 h 1.71 a 1.61,1.61 0 0 1 1.75,1.75 v 0.65 c 0,2.5 1.09,3.4 2.84,3.4 1.75,0 2.86,-0.9 2.86,-3.5 0,-2.9 -1.1,-4.75 -4.7,-7.9 -4.61,-4.05 -6.11,-6.9 -6.11,-10.9 0,-5.5 2.86,-8.7 8.2,-8.7 5.34,0 8,3.3 8,8.5 a 1.56,1.56 0 0 1 -1.75,1.75 h -1.7 a 1.56,1.56 0 0 1 -1.75,-1.75 v -0.05 c 0,-2.5 -1,-3.45 -2.75,-3.45 -1.75,0 -2.7,0.95 -2.7,3.3 0,2.35 1.15,4.4 4.76,7.55 4.6,4.05 6,6.85 6,11.2 0,5.7 -2.9,8.9 -8.3,8.9 -5.4,0 -8.11,-3.2 -8.11,-8.8 z"
       id="path77"
       style="fill:#ffffff;fill-opacity:1;stroke:none" />
    <path
       class="cls-3"
       d="m 804.5,529.2 v -18.4 c 0,-5.6 3,-8.8 8.35,-8.8 5.35,0 8.36,3.2 8.36,8.8 v 18.4 c 0,5.6 -3,8.8 -8.36,8.8 -5.36,0 -8.35,-3.2 -8.35,-8.8 z m 11.21,0.35 v -19.1 c 0,-2.5 -1.11,-3.45 -2.86,-3.45 -1.75,0 -2.85,1 -2.85,3.45 v 19.1 c 0,2.5 1.09,3.45 2.84,3.45 1.75,0 2.87,-0.95 2.87,-3.45 z"
       id="path79"
       style="fill:#ffffff;fill-opacity:1;stroke:none" />
    <path
       class="cls-3"
       d="m 829.9,535.75 v -31.5 a 1.6,1.6 0 0 1 1.75,-1.75 h 6.41 c 5.7,0 8.15,2.65 8.15,8.05 v 2.15 c 0,3.6 -1.15,5.9 -3.61,6.9 v 0.1 c 2.75,0.85 3.66,3.45 3.66,7.4 v 6.15 a 12.17,12.17 0 0 0 0.14,2.35 2.85,2.85 0 0 1 0.11,0.65 c 0,0.8 -0.55,1.25 -1.5,1.25 h -2.2 a 1.68,1.68 0 0 1 -1.91,-1.5 18.89,18.89 0 0 1 -0.15,-2.8 v -6.4 c 0,-3.25 -0.94,-4.3 -3.44,-4.3 h -1.91 v 13.25 a 1.6,1.6 0 0 1 -1.75,1.75 h -2 a 1.6,1.6 0 0 1 -1.75,-1.75 z m 7.5,-18.25 c 2.05,0 3.3,-0.9 3.3,-3.7 v -2.7 c 0,-2.5 -0.85,-3.6 -2.8,-3.6 h -2.5 v 10 z"
       id="path81"
       style="fill:#ffffff;fill-opacity:1;stroke:none" />
    <path
       class="cls-3"
       d="M 854.1,529.2 V 529 a 1.6,1.6 0 0 1 1.75,-1.75 h 1.7 a 1.61,1.61 0 0 1 1.76,1.75 v 0.65 c 0,2.5 1.09,3.4 2.84,3.4 1.75,0 2.86,-0.9 2.86,-3.5 0,-2.9 -1.11,-4.75 -4.7,-7.9 -4.61,-4.05 -6.11,-6.9 -6.11,-10.9 0,-5.5 2.85,-8.7 8.2,-8.7 5.35,0 8,3.3 8,8.5 a 1.56,1.56 0 0 1 -1.75,1.75 H 867 a 1.56,1.56 0 0 1 -1.75,-1.75 v -0.05 c 0,-2.5 -1,-3.45 -2.76,-3.45 -1.76,0 -2.75,0.95 -2.75,3.35 0,2.4 1.15,4.4 4.76,7.55 4.6,4.05 6,6.85 6,11.2 0,5.7 -2.91,8.9 -8.31,8.9 -5.4,0 -8.09,-3.25 -8.09,-8.85 z"
       id="path83"
       style="fill:#ffffff;fill-opacity:1;stroke:none" />
  </g>
</svg>
